<svg width="38" height="48" viewBox="0 0 38 48" fill="none" xmlns="http://www.w3.org/2000/svg">
<path fill-rule="evenodd" clip-rule="evenodd" d="M31.4713 7.2411L33.1661 0L38 1.14347L36.3053 8.38456C35.5795 11.4854 32.8272 13.6769 29.6586 13.6769H5.98793L9.73342 33.681C9.8991 34.5659 10.6679 35.2069 11.5635 35.2069H23.591C24.7407 35.2069 25.7401 34.4133 26.0064 33.2888L27.4735 27.0941H18.5126V22.1017H33.7606L30.8373 34.4452C30.0384 37.8186 27.0403 40.1993 23.591 40.1993H11.5635C8.27952 40.1993 5.46067 37.8491 4.85318 34.6045L0 8.68446H29.6586C30.5228 8.68446 31.2734 8.08678 31.4713 7.2411Z" fill="#EC5955"/>
<path d="M25.6511 45.5038C25.6511 46.8824 24.5395 48 23.1682 48C21.7968 48 20.6852 46.8824 20.6852 45.5038C20.6852 44.1251 21.7968 43.0075 23.1682 43.0075C24.5395 43.0075 25.6511 44.1251 25.6511 45.5038Z" fill="#EC5955"/>
<path d="M15.0985 45.5038C15.0985 46.8824 13.9868 48 12.6155 48C11.2442 48 10.1325 46.8824 10.1325 45.5038C10.1325 44.1251 11.2442 43.0075 12.6155 43.0075C13.9868 43.0075 15.0985 44.1251 15.0985 45.5038Z" fill="#EC5955"/>
</svg>
