<svg xmlns="http://www.w3.org/2000/svg" viewBox="0 0 512 512"><style>path{fill:#005f86}@media (prefers-color-scheme:dark){path{fill:#fff}}</style><path d="M345.708 315.644H165.503l-6.642 21.584h48.15l9.194 29.628h79.057l9.067-29.628h48.021l-6.385-21.713-.257.129Zm-150.83-121.202c-13.886 19.074-9.652 45.797 9.45 59.642l43.168 31.291c4.828 3.424 5.97 10.11 2.554 14.942l6.386 4.726 22.861-31.546a42.399 42.399 0 0 0 8.046-24.904 43.256 43.256 0 0 0-.511-6.896 42.401 42.401 0 0 0-17.113-27.714l-43.167-31.419a10.59 10.59 0 0 1-4.343-6.896 11.13 11.13 0 0 1 0-1.789 10.468 10.468 0 0 1 1.915-6.13l-6.385-4.726-22.861 31.419Zm25.925-125.928a61.303 61.303 0 0 0-11.876 36.017c-.004 3.293.252 6.58.766 9.833a61.42 61.42 0 0 0 24.775 40.358l54.28 39.337a32.958 32.958 0 0 1 13.283 21.583c.263 1.733.392 3.485.382 5.237a32.94 32.94 0 0 1-6.385 19.412l5.235 3.832 42.786-59.132c20.036-27.648 13.86-66.306-13.794-86.335l-65.517-47.639c-8.509-6.222-10.394-18.15-4.216-26.692l-5.107-3.704-34.612 47.893ZM109.947 384.993h49.426c12.133 0 21.711 3.32 27.841 9.323a24.39 24.39 0 0 1 7.28 18.135v.256c0 12.005-6.385 18.773-14.048 22.988 12.261 4.726 19.924 11.877 19.924 26.182v.256c0 19.54-15.838 29.246-39.847 29.246h-50.576V384.993Zm44.445 42.912c10.217 0 16.858-3.321 16.858-11.24v-.255c0-7.025-5.491-10.983-15.326-10.983h-23.115v22.478h21.583Zm6.257 42.913c10.218 0 16.604-3.577 16.604-11.496v-.255c0-7.151-5.363-11.495-17.37-11.495h-27.074v23.246h27.84Zm49.937-85.953h49.426c12.26 0 21.712 3.448 27.843 9.451a24.389 24.389 0 0 1 7.278 18.135v.256c0 12.005-6.385 18.773-14.047 22.988 12.387 4.726 19.923 11.877 19.923 26.182v.256c0 19.54-15.837 29.246-39.847 29.246h-50.576V384.865Zm44.446 43.167c10.216 0 16.857-3.448 16.857-11.367v-.255c0-7.025-5.491-10.983-15.325-10.983h-23.116v22.478l21.584.127Zm6.257 42.786c10.217 0 16.603-3.577 16.603-11.496v-.255c0-7.151-5.363-11.495-17.37-11.495h-27.074v23.246h27.841Zm49.937-85.953h49.681c12.133 0 21.712 3.448 27.714 9.451a24.392 24.392 0 0 1 7.407 18.135v.256c0 12.005-6.385 18.773-14.049 22.988 12.261 4.726 19.924 11.877 19.924 26.182v.256c0 19.54-15.836 29.246-39.847 29.246h-50.574l-.256-106.514Zm44.445 43.167c10.344 0 16.858-3.448 16.858-11.367v-.255c0-7.025-5.365-10.983-15.326-10.983h-22.989v22.478l21.457.127Zm6.258 42.786c10.345 0 16.602-3.577 16.602-11.496v-.255c0-7.151-5.363-11.495-17.369-11.495h-27.075v23.246h27.842Zm44.7-1.661v-.128c-.05-16.712 18.014-27.212 32.512-18.898a21.712 21.712 0 0 1 10.911 18.771c.099 16.713-17.934 27.264-32.457 18.994a21.713 21.713 0 0 1-10.966-18.739Zm40.869-.128v-.127c0-14.748-15.965-23.965-28.736-16.591a19.154 19.154 0 0 0-9.579 16.591v.255c.049 14.746 16.043 23.911 28.792 16.495a19.16 19.16 0 0 0 9.523-16.623Zm-28.097-12.133h10.217a9.706 9.706 0 0 1 7.151 2.555 6.903 6.903 0 0 1 2.044 5.108 7.153 7.153 0 0 1-5.108 7.152l5.746 8.173h-6.003l-4.852-7.407h-4.088v7.407h-5.107v-22.988Zm10.217 11.24c2.554 0 4.087-1.278 4.087-3.321 0-2.3-1.661-3.448-4.087-3.448h-5.11v6.769h5.11Z"/></svg>